<svg width="48" height="48" viewBox="0 0 48 48" fill="none" xmlns="http://www.w3.org/2000/svg">
<rect width="48" height="48" rx="4" fill="#AFD9B3"/>
<rect x="6" y="6" width="36" height="36" rx="2" fill="#67AD5B"/>
<path d="M17 18L23.0053 23.6049C23.7085 24.2613 24.0602 24.5895 24.4804 24.5704C24.9007 24.5512 25.2211 24.1924 25.8618 23.4748L37 11" stroke="white" stroke-width="4" stroke-linecap="round"/>
<path fill-rule="evenodd" clip-rule="evenodd" d="M42 22C40.8954 22 40 22.8954 40 24C40 25.1046 40.8954 26 42 26V22Z" fill="white"/>
<path fill-rule="evenodd" clip-rule="evenodd" d="M26 42C26 40.8954 25.1046 40 24 40C22.8954 40 22 40.8954 22 42L26 42Z" fill="white"/>
<path fill-rule="evenodd" clip-rule="evenodd" d="M6 26C7.10457 26 8 25.1046 8 24C8 22.8954 7.10457 22 6 22L6 26Z" fill="white"/>
<path fill-rule="evenodd" clip-rule="evenodd" d="M22 6C22 7.10457 22.8954 8 24 8C25.1046 8 26 7.10457 26 6L22 6Z" fill="white"/>
</svg>
